<?xml version="1.0" encoding="UTF-8"?>
<svg id="Layer_1" data-name="Layer 1" xmlns="http://www.w3.org/2000/svg" viewBox="0 0 841.89 595.28">
  <defs>
    <style>
      .cls-1 {
        font-size: 109.03px;
      }

      .cls-1, .cls-2 {
        fill: #054860;
      }

      .cls-3 {
        fill: #7fb7c6;
      }

      .cls-4 {
        font-family: HelveticaNeue-Bold, 'Helvetica Neue';
        font-weight: 700;
      }

      .cls-5 {
        font-family: HelveticaNeue-Thin, 'Helvetica Neue';
        font-weight: 200;
      }
    </style>
  </defs>
  <g>
    <g>
      <path class="cls-3" d="M200.24,225.16c3.76,3.62,5.26,9.45,3.46,14.38-1.3,3.77-4.37,6.82-6.36,10.38-1.69,2.98-2.73,6.34-3,9.75-.46,5.36.95,10.81,3.94,15.3,2.73,4.09,6.58,7.92,7.02,13.03,1.09,8.26-6.65,16.16-14.92,15.21-5.23-.35-9.2-4.29-13.52-6.84-7.46-4.47-17.3-4.4-24.67.21-4.64,2.93-8.53,7.46-14.3,7.57-7.43.49-14.37-5.85-14.57-13.29-.5-7.97,6.76-15.08,14.72-14.39,5.01.23,8.92,3.79,13.04,6.41,11.86,7.7,28.31,3.12,34.39-9.65,4.15-8.3,2.75-18.57-3.01-25.74-2.45-3.25-5.15-6.64-5.61-10.77-1.53-12.89,13.92-20.66,23.34-11.63l.06.06Z"/>
      <path class="cls-3" d="M126.76,299.47c.33.28.65.58.96.88s.61.61.91.93c-.33-.27-.66-.55-.97-.86s-.62-.62-.9-.95Z"/>
    </g>
    <path class="cls-2" d="M226.81,197.79c5.45,5.2,5.51,13.09,1.42,18.63-1.17,1.58-2.68,2.92-3.8,4.55-3.72,5.39-4.88,12.08-3.63,18.45,1.56,9.34,11.52,14.18,11.24,22.66-.12,3.65-2.09,7.76-4.85,10.29-10.68,9.74-27.23-1.78-22.97-14.6.15-.47.33-.94.53-1.39.67-1.55,1.73-2.9,2.8-4.04,8.44-8.39,9.11-22.64,1.78-31.81-1.46-1.85-3.37-3.43-4.61-5.49-8.11-13.9,10.79-28.53,22.02-17.33l.07.07Z"/>
    <path class="cls-2" d="M101.45,327.41c5.38,5.27,13.26,5.07,18.67.8,1.54-1.22,2.83-2.77,4.42-3.95,5.26-3.9,11.91-5.28,18.32-4.25,9.39,1.24,14.56,11.04,23.02,10.48,3.65-.25,7.69-2.35,10.12-5.19,9.38-11-2.69-27.15-15.36-22.47-.46.17-.93.36-1.37.58-1.53.73-2.84,1.83-3.94,2.93-8.1,8.72-22.32,9.87-31.73,2.84-1.89-1.39-3.54-3.25-5.64-4.42-14.17-7.64-28.15,11.74-16.59,22.59l.07.07Z"/>
    <g>
      <path class="cls-3" d="M309.65,329.8c-3.74-3.64-9.62-4.94-14.49-2.97-3.73,1.43-6.67,4.59-10.16,6.71-2.93,1.79-6.24,2.94-9.65,3.33-5.34.64-10.84-.59-15.42-3.42-4.18-2.59-8.13-6.31-13.26-6.58-8.29-.82-15.93,7.19-14.7,15.42.52,5.21,4.6,9.05,7.29,13.29,4.72,7.31,4.97,17.14.61,24.66-2.78,4.74-7.18,8.77-7.09,14.55-.24,7.45,6.33,14.17,13.77,14.11,7.98.24,14.85-7.26,13.88-15.19-.4-5-4.08-8.79-6.85-12.81-8.09-11.6-4.07-28.19,8.49-34.69,8.15-4.43,18.47-3.37,25.82,2.14,3.33,2.34,6.81,4.93,10.96,5.24,12.93,1.1,20.18-14.6,10.84-23.72l-.06-.06Z"/>
      <path class="cls-3" d="M237.84,405.73c-.29-.32-.6-.63-.91-.93s-.63-.59-.96-.88c.28.33.58.64.89.94s.64.6.98.86Z"/>
    </g>
    <path class="cls-3" d="M308.02,297.61c-3.62,3.76-9.45,5.26-14.38,3.46-3.77-1.3-6.82-4.37-10.38-6.36-2.98-1.69-6.34-2.73-9.75-3-5.36-.46-10.81.95-15.3,3.94-4.09,2.73-7.92,6.58-13.03,7.02-8.26,1.09-16.16-6.65-15.21-14.92.35-5.23,4.29-9.2,6.84-13.52,4.47-7.46,4.4-17.3-.21-24.67-2.93-4.64-7.46-8.53-7.57-14.3-.49-7.43,5.85-14.37,13.29-14.57,7.97-.5,15.08,6.76,14.39,14.72-.23,5.01-3.79,8.92-6.41,13.04-7.7,11.86-3.12,28.31,9.65,34.39,8.3,4.15,18.57,2.75,25.74-3.01,3.25-2.45,6.64-5.15,10.77-5.61,12.89-1.53,20.66,13.92,11.63,23.34l-.06.06Z"/>
    <g>
      <path class="cls-3" d="M203.38,407.01c3.64-3.74,4.94-9.62,2.97-14.49-1.43-3.73-4.59-6.67-6.71-10.16-1.79-2.93-2.94-6.24-3.33-9.65-.64-5.34.59-10.84,3.42-15.42,2.59-4.18,6.31-8.13,6.58-13.26.82-8.29-7.19-15.93-15.42-14.7-5.21.52-9.05,4.6-13.29,7.29-7.31,4.72-17.14,4.97-24.66.61-4.74-2.78-8.77-7.18-14.55-7.09-7.45-.24-14.17,6.33-14.11,13.77-.24,7.98,7.26,14.85,15.19,13.88,5-.4,8.79-4.08,12.81-6.85,11.6-8.09,28.19-4.07,34.69,8.49,4.43,8.15,3.37,18.47-2.14,25.82-2.34,3.33-4.93,6.81-5.24,10.96-1.1,12.93,14.6,20.18,23.72,10.84l.06-.06Z"/>
      <path class="cls-3" d="M127.46,335.21c.32-.29.63-.6.93-.91s.59-.63.88-.96c-.33.28-.64.58-.94.89s-.6.64-.86.98Z"/>
    </g>
    <path class="cls-2" d="M335.55,302.94c-5.38-5.27-13.26-5.07-18.67-.8-1.54,1.22-2.83,2.77-4.42,3.95-5.26,3.9-11.91,5.28-18.32,4.25-9.39-1.24-14.56-11.04-23.02-10.48-3.65.25-7.69,2.35-10.12,5.19-9.38,11,2.69,27.15,15.36,22.47.46-.17.93-.36,1.37-.58,1.53-.73,2.84-1.83,3.94-2.93,8.1-8.72,22.32-9.87,31.73-2.84,1.89,1.39,3.54,3.25,5.64,4.42,14.17,7.64,28.15-11.74,16.59-22.59l-.07-.07Z"/>
    <path class="cls-2" d="M210.19,432.57c-5.45-5.2-5.51-13.09-1.42-18.63,1.17-1.58,2.68-2.92,3.8-4.55,3.72-5.39,4.88-12.08,3.63-18.45-1.56-9.34-11.52-14.18-11.24-22.66.12-3.65,2.09-7.76,4.85-10.29,10.68-9.74,27.23,1.78,22.97,14.6-.15.47-.33.94-.53,1.39-.67,1.55-1.73,2.9-2.8,4.04-8.44,8.39-9.11,22.64-1.78,31.81,1.46,1.85,3.37,3.43,4.61,5.49,8.11,13.9-10.79,28.53-22.02,17.33l-.07-.07Z"/>
  </g>
  <text class="cls-1" transform="translate(365.55 302.13)"><tspan class="cls-5"><tspan x="0" y="0">HOSPI</tspan></tspan><tspan class="cls-4"><tspan x="0" y="86.31">CARE</tspan></tspan></text>
</svg>